<svg xmlns="http://www.w3.org/2000/svg" width="800" height="520" viewBox="0 0 800 520" role="img" aria-labelledby="title desc">
<title id="title">Repeated testing exposed three failures</title><desc id="desc">Initial candidate: six of six passed. In a separate repeated gate the candidate passed twelve of fifteen and the reference fifteen of fifteen. Tiles are grouped by outcome and do not show run order.</desc>
<defs><radialGradient id="glow" cx="100%" cy="0%" r="100%"><stop stop-color="#244f60"/><stop offset="1" stop-color="#122339"/></radialGradient><pattern id="grid" width="32" height="32" patternUnits="userSpaceOnUse"><circle cx="1" cy="1" r="1" fill="#adc7dc" opacity=".12"/></pattern></defs>
<rect width="800" height="520" rx="18" fill="url(#glow)"/><rect width="800" height="520" rx="18" fill="url(#grid)"/>
<g font-family="Arial, sans-serif"><text x="40" y="48" fill="#83ddd0" font-size="20" letter-spacing="2">02 / RELIABILITY UNDER REPETITION</text><text x="40" y="99" fill="#eaf2fb" font-size="32" font-weight="700">An early pass wasn’t the finish line.</text><text x="40" y="153" fill="#9db8da" font-size="24" >Initial candidate</text><text x="752" y="153" fill="#eaf2fb" font-size="26" text-anchor="end" font-weight="700">6 / 6 passed</text><rect x="40" y="174" width="36" height="36" rx="7" fill="#83ddd0"/><rect x="88" y="174" width="36" height="36" rx="7" fill="#83ddd0"/><rect x="136" y="174" width="36" height="36" rx="7" fill="#83ddd0"/><rect x="184" y="174" width="36" height="36" rx="7" fill="#83ddd0"/><rect x="232" y="174" width="36" height="36" rx="7" fill="#83ddd0"/><rect x="280" y="174" width="36" height="36" rx="7" fill="#83ddd0"/><line x1="40" y1="239" x2="760" y2="239" stroke="#30465e" /><text x="40" y="280" fill="#9db8da" font-size="24" >Repeated gate · candidate</text><text x="752" y="280" fill="#eaf2fb" font-size="26" text-anchor="end" font-weight="700">12 / 15</text><rect x="40" y="301" width="36" height="36" rx="7" fill="#83ddd0"/><rect x="88" y="301" width="36" height="36" rx="7" fill="#83ddd0"/><rect x="136" y="301" width="36" height="36" rx="7" fill="#83ddd0"/><rect x="184" y="301" width="36" height="36" rx="7" fill="#83ddd0"/><rect x="232" y="301" width="36" height="36" rx="7" fill="#83ddd0"/><rect x="280" y="301" width="36" height="36" rx="7" fill="#83ddd0"/><rect x="328" y="301" width="36" height="36" rx="7" fill="#83ddd0"/><rect x="376" y="301" width="36" height="36" rx="7" fill="#83ddd0"/><rect x="424" y="301" width="36" height="36" rx="7" fill="#83ddd0"/><rect x="472" y="301" width="36" height="36" rx="7" fill="#83ddd0"/><rect x="520" y="301" width="36" height="36" rx="7" fill="#83ddd0"/><rect x="568" y="301" width="36" height="36" rx="7" fill="#83ddd0"/><rect x="616" y="301" width="36" height="36" rx="7" fill="#352f43" stroke="#df9ea9"/><line x1="626.8" y1="311.8" x2="641.2" y2="326.2" stroke="#df9ea9" stroke-width="2"/><line x1="641.2" y1="311.8" x2="626.8" y2="326.2" stroke="#df9ea9" stroke-width="2"/><rect x="664" y="301" width="36" height="36" rx="7" fill="#352f43" stroke="#df9ea9"/><line x1="674.8" y1="311.8" x2="689.2" y2="326.2" stroke="#df9ea9" stroke-width="2"/><line x1="689.2" y1="311.8" x2="674.8" y2="326.2" stroke="#df9ea9" stroke-width="2"/><rect x="712" y="301" width="36" height="36" rx="7" fill="#352f43" stroke="#df9ea9"/><line x1="722.8" y1="311.8" x2="737.2" y2="326.2" stroke="#df9ea9" stroke-width="2"/><line x1="737.2" y1="311.8" x2="722.8" y2="326.2" stroke="#df9ea9" stroke-width="2"/><text x="40" y="382" fill="#9db8da" font-size="24" >Repeated gate · reference</text><text x="752" y="382" fill="#eaf2fb" font-size="26" text-anchor="end" font-weight="700">15 / 15</text><rect x="40" y="403" width="36" height="36" rx="7" fill="#83ddd0"/><rect x="88" y="403" width="36" height="36" rx="7" fill="#83ddd0"/><rect x="136" y="403" width="36" height="36" rx="7" fill="#83ddd0"/><rect x="184" y="403" width="36" height="36" rx="7" fill="#83ddd0"/><rect x="232" y="403" width="36" height="36" rx="7" fill="#83ddd0"/><rect x="280" y="403" width="36" height="36" rx="7" fill="#83ddd0"/><rect x="328" y="403" width="36" height="36" rx="7" fill="#83ddd0"/><rect x="376" y="403" width="36" height="36" rx="7" fill="#83ddd0"/><rect x="424" y="403" width="36" height="36" rx="7" fill="#83ddd0"/><rect x="472" y="403" width="36" height="36" rx="7" fill="#83ddd0"/><rect x="520" y="403" width="36" height="36" rx="7" fill="#83ddd0"/><rect x="568" y="403" width="36" height="36" rx="7" fill="#83ddd0"/><rect x="616" y="403" width="36" height="36" rx="7" fill="#83ddd0"/><rect x="664" y="403" width="36" height="36" rx="7" fill="#83ddd0"/><rect x="712" y="403" width="36" height="36" rx="7" fill="#83ddd0"/><text x="40" y="490" fill="#9db8da" font-size="21" >Each tile = one run · grouped by outcome, not run order</text></g></svg>